<?xml version="1.0" encoding="UTF-8" standalone="no"?><!DOCTYPE svg PUBLIC "-//W3C//DTD SVG 1.1//EN" "http://www.w3.org/Graphics/SVG/1.1/DTD/svg11.dtd"><svg width="100%" height="100%" viewBox="0 0 60 93" version="1.1" xmlns="http://www.w3.org/2000/svg" xmlns:xlink="http://www.w3.org/1999/xlink" xml:space="preserve" xmlns:serif="http://www.serif.com/" style="fill-rule:evenodd;clip-rule:evenodd;stroke-linecap:round;stroke-linejoin:round;stroke-miterlimit:1.5;"><path d="M59.5,1.88c0,-0.757 -0.615,-1.372 -1.372,-1.372l-55.762,0c-0.757,0 -1.372,0.615 -1.372,1.372l0,88.748c0,0.757 0.615,1.372 1.372,1.372l55.762,0c0.757,0 1.372,-0.615 1.372,-1.372l0,-88.748Z" style="fill:#994c29;stroke:#efeeee;stroke-width:1px;"/><path d="M55,5.555c-0,-0.582 -0.473,-1.055 -1.055,-1.055l-42.89,0c-0.582,0 -1.055,0.473 -1.055,1.055l0,81.39c0,0.582 0.473,1.055 1.055,1.055l42.89,0c0.582,0 1.055,-0.473 1.055,-1.055l-0,-81.39Z" style="fill:#994c29;stroke:#efeeee;stroke-width:1px;"/><path d="M25.447,0.5l-10.947,-0l0,24.5l5.474,-3.009l5.473,3.009l0,-24.5Z" style="fill:#1f3848;stroke:#efeeee;stroke-width:1px;"/><path d="M3.5,9.253l0,-8.753l2.25,0l0,91.5l-2.25,0l0,-9.759l-1.722,0c-0,0 -1.278,0 -1.278,-1.541c0,-1.542 1.278,-1.542 1.278,-1.542l1.722,0l0,-8.733l-1.722,-0c-0,-0 -1.278,-0 -1.278,-1.542c0,-1.542 1.278,-1.542 1.278,-1.542l1.722,0l0,-43.182l-1.722,0c-0,0 -1.278,0 -1.278,-1.542c0,-1.541 1.278,-1.541 1.278,-1.541l1.722,-0l0,-8.739l-1.722,-0c-0,-0 -1.278,-0 -1.278,-1.542c0,-1.542 1.278,-1.542 1.278,-1.542l1.722,0Z" style="fill:#1f3848;stroke:#efeeee;stroke-width:1px;"/></svg>