<?xml version="1.0" encoding="UTF-8" standalone="no"?><!DOCTYPE svg PUBLIC "-//W3C//DTD SVG 1.1//EN" "http://www.w3.org/Graphics/SVG/1.1/DTD/svg11.dtd"><svg width="100%" height="100%" viewBox="0 0 60 93" version="1.1" xmlns="http://www.w3.org/2000/svg" xmlns:xlink="http://www.w3.org/1999/xlink" xml:space="preserve" xmlns:serif="http://www.serif.com/" style="fill-rule:evenodd;clip-rule:evenodd;stroke-linecap:round;stroke-linejoin:round;stroke-miterlimit:1.5;"><path d="M59.5,1.891c0,-0.763 -0.62,-1.383 -1.383,-1.383l-56.234,0c-0.763,0 -1.383,0.62 -1.383,1.383l0,88.726c0,0.763 0.62,1.383 1.383,1.383l56.234,0c0.763,0 1.383,-0.62 1.383,-1.383l0,-88.726Z" style="fill:#493434;stroke:#676c7d;stroke-width:1px;"/><path d="M54.5,6.555c0,-0.582 -0.473,-1.055 -1.055,-1.055l-42.89,-0c-0.582,-0 -1.055,0.473 -1.055,1.055l0,79.39c0,0.582 0.473,1.055 1.055,1.055l42.89,-0c0.582,-0 1.055,-0.473 1.055,-1.055l0,-79.39Z" style="fill:#493434;stroke:#676c7d;stroke-width:1px;"/><rect x="4" y="1" width="1" height="90.5" style="fill:#676c7d;"/><g><g><path d="M19.99,-0l-5.99,-0l0,27l5.99,-3.316l0,-23.684Z" style="fill:#9bd7d1;"/><path d="M20.01,-0l5.99,-0l0,27l-5.99,-3.316l-0,-23.684Z" style="fill:#f9a26c;"/></g></g></svg>