<svg viewBox="-2.4 -2.4 28.80 28.80" fill="none" xmlns="http://www.w3.org/2000/svg"><g id="SVGRepo_bgCarrier" stroke-width="0" transform="translate(0,0), scale(1)"><rect x="-2.4" y="-2.4" width="28.80" height="28.80" rx="14.4" fill="#efeeee" strokewidth="0"></rect></g><g id="SVGRepo_tracerCarrier" stroke-linecap="round" stroke-linejoin="round" stroke="#994c29" stroke-width="4.8"> <path d="M3.5 18V7C3.5 3 4.5 2 8.5 2H15.5C19.5 2 20.5 3 20.5 7V17C20.5 17.14 20.5 17.28 20.49 17.42" stroke="#994c29" stroke-width="1.5" stroke-linecap="round" stroke-linejoin="round"></path> <path d="M6.35 15H20.5V18.5C20.5 20.43 18.93 22 17 22H7C5.07 22 3.5 20.43 3.5 18.5V17.85C3.5 16.28 4.78 15 6.35 15Z" stroke="#994c29" stroke-width="1.5" stroke-linecap="round" stroke-linejoin="round"></path> <path d="M8 7H16" stroke="#994c29" stroke-width="1.5" stroke-linecap="round" stroke-linejoin="round"></path> <path d="M8 10.5H13" stroke="#994c29" stroke-width="1.5" stroke-linecap="round" stroke-linejoin="round"></path> </g><g id="SVGRepo_iconCarrier"> <path d="M3.5 18V7C3.5 3 4.5 2 8.5 2H15.5C19.5 2 20.5 3 20.5 7V17C20.5 17.14 20.5 17.28 20.49 17.42" stroke="#994c29" stroke-width="1.5" stroke-linecap="round" stroke-linejoin="round"></path> <path d="M6.35 15H20.5V18.5C20.5 20.43 18.93 22 17 22H7C5.07 22 3.5 20.43 3.5 18.5V17.85C3.5 16.28 4.78 15 6.35 15Z" stroke="#994c29" stroke-width="1.5" stroke-linecap="round" stroke-linejoin="round"></path> <path d="M8 7H16" stroke="#994c29" stroke-width="1.5" stroke-linecap="round" stroke-linejoin="round"></path> <path d="M8 10.5H13" stroke="#994c29" stroke-width="1.5" stroke-linecap="round" stroke-linejoin="round"></path> </g></svg>